<svg xmlns="http://www.w3.org/2000/svg" width="18" height="10" viewBox="0 0 18 10">
  <defs>
    <style>
      .cls-1 {
        fill: #fff;
        fill-rule: evenodd;
      }
    </style>
  </defs>
  <path id="Shape_6_copy_10" data-name="Shape 6 copy 10" class="cls-1" d="M7.042,3.079A4.6,4.6,0,0,0,6.829,1.23,1.928,1.928,0,0,0,5.9.659C6.207,0.066,7.042.007,8.05,0.007,8.265,0.007,8.5,0,8.738,0a2.028,2.028,0,0,1,1.673.454,4.831,4.831,0,0,1,.084,2.285c0,0.086-.006.173-0.01,0.258h0c0,0.024,0,.048,0,0.072a2.641,2.641,0,0,0,.177,1.494h0a0,0,0,0,1,0,0h0v0h0l0,0.006s0,0,0,0h0v0h0l0,0h0v0h0v0h0a0.014,0.014,0,0,1,0,0h0v0h0v0h0v0h0v0h0v0h0s0,0,0,0h0s0,0,0,0h0a0,0,0,0,1,0,0h0l0,0h0v0h0v0h0l0,0h0v0h0s0,0,0,0h0l0,0.005h0s0,0,0,0h0v0h0l0.005,0.006h0L10.749,4.68h0s0,0,0,0h0l0.009,0.01h0l0.01,0.01h0v0h0l0.01,0.01h0v0h0L10.8,4.729h0v0h0L10.811,4.74h0v0h0l0,0h0l0.009,0.008h0l0,0h0v0h0l0.009,0.007h0l0,0h0a0.042,0.042,0,0,1,.008.007h0.006l0.005,0h0.008l0,0h0l0.005,0h0s0,0,0,0h0v0h0l0,0h0s0,0,0,0h0.014s0,0,0,0h0a0,0,0,0,0,0,0h0A1.617,1.617,0,0,0,11.886,4l0,0,0.028-.036a9.632,9.632,0,0,0,.572-0.812h0a13.738,13.738,0,0,0,.788-1.475A2.421,2.421,0,0,1,13.993.5,2.133,2.133,0,0,1,14.705.4c0.42,0,.9.054,1.353,0.054,0.271,0,.637-0.032.977-0.032A1.024,1.024,0,0,1,17.955.7a2.359,2.359,0,0,1-.464,1.428A16.083,16.083,0,0,1,16.141,3.9h0c-0.1.122-.2,0.246-0.3,0.375l-0.073.092a2.438,2.438,0,0,0-.718,1.263c0,0.014,0,.028,0,0.042a1.67,1.67,0,0,0,.716.939,13.519,13.519,0,0,1,1.644,1.672A2.379,2.379,0,0,1,18,9.344a0.394,0.394,0,0,1,0,.045L18,9.4c-0.07.485-.7,0.58-1.408,0.58-0.226,0-.46-0.01-0.69-0.019S15.446,9.94,15.245,9.94a2.347,2.347,0,0,0-.619.061H14.541a3.654,3.654,0,0,1-2.065-1.346l0,0-0.005-.006a0,0,0,0,0,0,0s0,0,0,0l0,0h0l0,0h0L12.454,8.63h0a2.132,2.132,0,0,0-1.2-.96h0a0.574,0.574,0,0,0-.088.007h0c-0.778.122-.392,1.407-0.717,1.958h0l0,0h0a1.393,1.393,0,0,1-1.157.342h0C8.957,9.982,8.6,9.949,8.3,9.919A6.56,6.56,0,0,1,3.541,7.064l0-.005h0l0,0s0,0,0,0l0,0h0a25.442,25.442,0,0,1-2.9-4.594A4.094,4.094,0,0,1,0,.659,1.444,1.444,0,0,1,.913.438c0.246,0,.509.017,0.774,0.017,0.3,0,.685-0.034,1.043-0.034A1.872,1.872,0,0,1,3.5.538a3.186,3.186,0,0,1,.674,1.141A14.45,14.45,0,0,0,5.1,3.329h0c0.14,0.215.286,0.428,0.444,0.648h0l0,0v0a0.008,0.008,0,0,1,0,0h0l0,0h0l0,0h0L5.564,4h0l0,0v0h0l0,0a0.012,0.012,0,0,0,0,0h0a0.014,0.014,0,0,1,0,0l0,0a1.618,1.618,0,0,0,.924.849h0a0.44,0.44,0,0,0,.077-0.007c0.408-.08.446-1.051,0.463-1.672,0-.035,0-0.072,0-0.109h0M14.625,10H14.541a3.654,3.654,0,0,1-2.065-1.346c-0.3-.326-0.759-1.064-1.306-0.979-0.778.122-.392,1.407-0.717,1.958C10.191,10.079,9.073,10,8.3,9.919A6.56,6.56,0,0,1,3.541,7.064,25.441,25.441,0,0,1,.633,2.454,4.094,4.094,0,0,1,0,.659a2.877,2.877,0,0,1,1.686-.2A5.37,5.37,0,0,1,3.5.538a3.186,3.186,0,0,1,.674,1.141A14.7,14.7,0,0,0,5.564,4a1.434,1.434,0,0,0,1.011.856c0.408-.08.446-1.051,0.463-1.672a4.88,4.88,0,0,0-.21-1.958A1.928,1.928,0,0,0,5.9.659C6.207,0.066,7.042.007,8.05,0.007c0.848,0,2.03-.091,2.361.448a4.831,4.831,0,0,1,.084,2.285c-0.024.835-.172,1.7,0.422,2.08A1.617,1.617,0,0,0,11.886,4a11.089,11.089,0,0,0,1.391-2.326A2.421,2.421,0,0,1,13.993.5,7.422,7.422,0,0,1,16.058.455c0.61,0,1.7-.163,1.9.245a2.359,2.359,0,0,1-.464,1.428,24.656,24.656,0,0,1-1.728,2.244,2.3,2.3,0,0,0-.716,1.3,1.67,1.67,0,0,0,.716.939,13.519,13.519,0,0,1,1.644,1.672,2.155,2.155,0,0,1,.59,1.1c-0.084.65-1.145,0.61-2.1,0.571A4.728,4.728,0,0,0,14.625,10M9.292,9.982h0m1.158-.342a1.394,1.394,0,0,1-1.157.342,1.393,1.393,0,0,0,1.157-.342m0,0h0m0,0h0M18,9.4c-0.07.485-.7,0.58-1.408,0.58-0.226,0-.46-0.01-0.69-0.019S15.446,9.94,15.245,9.94a2.347,2.347,0,0,0-.619.061,2.347,2.347,0,0,1,.619-0.061c0.2,0,.424.01,0.653,0.019s0.464,0.019.69,0.019c0.712,0,1.338-.095,1.408-0.58m-5.528-.753,0.005,0.006-0.005-.006m0,0s0,0,0,0,0,0,0,0m0,0h0m0,0h0m-0.007-.008h0m-1.2-.96a0.574,0.574,0,0,0-.088.007,0.574,0.574,0,0,1,.088-0.007m0,0h0m-7.72-.611h0m0-.006s0,0,0,0h0m0,0h0M6.5,4.868h0m4.415-.049h0m0,0h0m0,0a0,0,0,0,0,0,0,0,0,0,0,1,0,0m0,0h0m0,0h0m0,0s0,0,0,0,0,0,0,0m0,0h0m0,0h0m0,0h0m0,0h0m0,0h0m0,0h0m0,0h0m0,0h0m0,0h0m0,0h0m0,0,0,0,0,0m0,0h0m0,0h0m0,0v0m0,0h0m0,0s0,0,0,0,0,0,0,0m0,0h0m-0.005,0,0.005,0-0.005,0m0,0,0,0,0,0m0,0h0m0,0h0m0,0h0m0,0h0m0,0h0m-0.006,0,0.005,0-0.005,0m0,0h0m0,0h0m0,0h0m0,0h0m-0.009-.007a0.042,0.042,0,0,1,.008.007,0.042,0.042,0,0,0-.008-0.007m0,0,0,0,0,0m0,0h0m0,0h0m0,0h0m-0.009-.007,0.009,0.007-0.009-.007m0,0v0m0,0h0m0,0,0,0,0,0m-0.009-.008,0.009,0.008-0.009-.008m0,0,0,0,0,0m0,0h0m0,0v0M10.8,4.731L10.811,4.74,10.8,4.731m0,0h0m0,0v0M10.788,4.72L10.8,4.729,10.788,4.72m0,0v0m0,0h0m-0.01-.01,0.01,0.01-0.01-.01m0,0v0m0,0h0m-0.01-.01,0.01,0.01-0.01-.01m0,0h0m-0.009-.01,0.009,0.01-0.009-.01m0,0s0,0,0,0,0,0,0,0m0,0h0m0,0h0m-0.007-.008L10.749,4.68l-0.007-.008m0,0h0m0,0h0m0,0h0m0,0h0m-0.005-.006,0.005,0.006-0.005-.006m0,0v0m0,0h0m0,0h0m0,0s0,0,0,0,0,0,0,0m0,0h0m0-.005,0,0.005,0-.005m0,0s0,0,0,0,0,0,0,0m0,0h0m0,0v0m0,0h0m0,0h0m0,0h0m0,0,0,0,0,0m0,0v0m0,0h0m0,0h0m0,0v0m0,0h0m0,0h0m0,0,0,0,0,0m0,0h0m0,0h0m0,0a0,0,0,0,1,0,0,0,0,0,0,0,0,0m0,0h0m0,0h0m0,0h0m0,0s0,0,0,0,0,0,0,0m0,0h0m0,0s0,0,0,0,0,0,0,0m0,0h0m0,0h0m0,0h0m0,0h0m0,0h0m0,0h0m0,0h0m0,0h0m0,0h0m0,0h0m0,0h0m0,0h0m0,0h0m0,0h0m0,0h0m0,0h0m0,0h0m0,0h0m0,0h0m0,0h0m0,0h0m0,0h0m0,0h0s0,0,0,0m0-.006h0m0,0h0m0,0h0m0,0h0M5.573,4.017l0,0,0,0m0,0h0m0,0,0,0,0,0m0,0v0M11.888,4l0,0a1.617,1.617,0,0,1-.97.815h0A1.617,1.617,0,0,0,11.886,4l0,0M5.561,4L5.564,4h0l0-.005m0-.005,0,0,0,0m0-.005,0,0,0,0m0-.005a0.008,0.008,0,0,1,0,0,0.008,0.008,0,0,0,0,0m0-.006,0,0,0,0m10.6-.074q-0.151.182-.3,0.376c0.1-.129.2-0.253,0.3-0.375h0M5.1,3.329h0c0.14,0.215.286,0.428,0.444,0.648C5.387,3.757,5.24,3.544,5.1,3.329m7.388-.175a9.632,9.632,0,0,1-.572.812,9.757,9.757,0,0,0,.573-0.812h0M7.042,3.079h0c0,0.037,0,.074,0,0.109-0.017.621-.056,1.593-0.463,1.672a0.44,0.44,0,0,1-.077.007,0.44,0.44,0,0,0,.077-0.007c0.408-.08.446-1.051,0.463-1.672,0-.035,0-0.072,0-0.109M10.485,3c0,0.024,0,.048,0,0.072,0-.024,0-0.048,0-0.072h0"/>
</svg>
